<svg width="56" height="56" viewBox="0 0 56 56" fill="none" xmlns="http://www.w3.org/2000/svg">
<path d="M19.4847 42.6317V41.8973L18.7597 42.0114L18.0347 42.1255L17.3097 42.2395L16.5847 42.3536V43.088V47.6817C16.5847 50.8239 19.1394 53.3786 22.28 53.3786C22.5753 53.3786 22.8753 53.3551 23.1691 53.3098L34.6722 51.502C38.8863 50.8395 42.391 49.1583 45.0863 46.5036C47.9519 43.6848 49.405 40.338 49.405 36.552C49.405 33.5864 48.4425 31.0739 46.5425 29.0786C46.3066 28.8317 46.0582 28.5973 45.7988 28.3739C45.8847 28.2583 45.9675 28.1426 46.0488 28.0255C47.5019 25.9395 48.2378 23.5989 48.2378 21.0661C48.2378 20.3723 48.1878 19.6926 48.0894 19.0489C47.6207 15.9848 46.1035 13.5583 43.5753 11.838C41.5019 10.427 38.9519 9.7114 35.9941 9.7114C35.8769 9.7114 35.7597 9.71296 35.641 9.71452C35.3972 9.71921 35.1488 9.72858 34.8988 9.74264C34.9535 9.97858 35.0035 10.2161 35.0425 10.4614C35.08 10.6973 35.1097 10.938 35.1316 11.1833C35.1535 11.4208 35.1675 11.663 35.1769 11.9083C35.1816 12.0598 35.1878 12.2114 35.1878 12.3676C35.1878 12.4567 35.1847 12.5458 35.1832 12.6348C35.43 12.6223 35.6707 12.6161 35.9082 12.6145C35.9363 12.6145 35.966 12.613 35.9941 12.613C38.3597 12.613 40.3613 13.1598 41.9441 14.2364C43.7785 15.4848 44.8816 17.252 45.2222 19.488C45.2988 19.9895 45.3378 20.5208 45.3378 21.0676C45.3378 22.9958 44.7769 24.7786 43.6691 26.3692C42.9488 27.4051 42.0738 28.2942 41.0566 29.027C42.38 29.4239 43.516 30.1114 44.4472 31.0848C45.8128 32.5192 46.505 34.3583 46.505 36.5536C46.505 39.5317 45.3441 42.1848 43.0535 44.4364C40.7972 46.6583 37.8269 48.0723 34.2238 48.638L22.7207 50.4458C22.5753 50.4692 22.4269 50.4801 22.2816 50.4801C20.741 50.4801 19.4863 49.2255 19.4863 47.6833V42.6333" fill="#00C0F4"/>
<path d="M32.5911 9.99255C32.6317 9.9863 32.6708 9.98162 32.7098 9.97537C32.952 9.93787 33.1926 9.90505 33.4317 9.87537C33.677 9.84568 33.9208 9.82068 34.1614 9.7988C34.4098 9.77693 34.6551 9.75818 34.8973 9.74412C34.8411 9.50037 34.7739 9.26287 34.7004 9.02849C34.0911 7.10037 32.9098 5.52849 31.1583 4.3363C29.3301 3.09255 27.0536 2.4613 24.3926 2.4613C23.3989 2.4613 22.3286 2.55037 21.2161 2.72537L10.0239 4.48474C7.94419 4.8113 6.43481 6.57537 6.43481 8.68005V38.9816C6.43481 41.3238 8.3395 43.2285 10.6801 43.2285C10.9004 43.2285 11.1239 43.2113 11.3442 43.1769L15.8598 42.4676L16.5848 42.3535V17.3801C16.5848 14.5582 18.6098 12.191 21.3973 11.7519L32.5895 9.99255H32.5911Z" fill="#0098FF"/>
<path d="M33.8942 21.3817C33.3567 20.8192 32.7552 20.3333 32.0989 19.9302C32.5192 19.4833 32.9083 19.0036 33.2599 18.4974C34.3474 16.9364 34.9771 15.213 35.1427 13.3614C35.1646 13.1208 35.1786 12.8786 35.1833 12.6349C34.9458 12.6458 34.7036 12.663 34.4567 12.6849C34.2177 12.7067 33.9755 12.7317 33.7286 12.763C33.502 12.7911 33.2724 12.8224 33.0411 12.8583L32.9974 12.8645L21.8489 14.6161C20.4802 14.8317 19.4849 15.9927 19.4849 17.3786V41.8974L20.2099 41.7833L22.8474 41.3692C26.7567 40.7552 29.9942 39.2067 32.4692 36.7692C35.0474 34.2333 36.3552 31.2333 36.3552 27.852C36.3552 25.2724 35.527 23.0958 33.8942 21.3817Z" fill="#0098FF"/>
</svg>
