<svg viewBox="0 0 32 32" fill="none" xmlns="http://www.w3.org/2000/svg">
<path d="M19.6144 7.00697C20.4608 5.92855 21.0373 4.47912 20.8865 3C19.6436 3.06184 18.1283 3.83355 17.2551 4.91444C16.4671 5.83703 15.769 7.3483 15.9514 8.76558C17.3451 8.88678 18.7364 8.05571 19.6144 7.00697Z" fill="white"/>
<path d="M20.8704 9.03958C18.8467 8.91839 17.1271 10.207 16.1591 10.207C15.191 10.207 13.7098 9.10389 12.1118 9.1311C10.0273 9.16078 8.09609 10.3604 7.03806 12.2649C4.86118 16.0765 6.46404 21.7283 8.58011 24.8325C9.60653 26.3685 10.847 28.0578 12.4717 27.9985C14.0138 27.9366 14.617 26.9819 16.4874 26.9819C18.3578 26.9819 18.9026 27.9985 20.5347 27.9713C22.2276 27.9391 23.2832 26.4353 24.312 24.8968C25.4868 23.1431 25.9708 21.4562 26 21.3622C25.9708 21.3326 22.7432 20.0711 22.7091 16.2917C22.68 13.1257 25.2484 11.6243 25.3676 11.5303C23.918 9.34876 21.6511 9.10389 20.8679 9.04206" fill="white"/>
</svg>
