<svg viewBox="0 0 32 32" fill="none" xmlns="http://www.w3.org/2000/svg">
<g id="Layer_1">
<g id="Group 20133">
<path id="Vector" d="M14.7992 4.10971C11.0363 4.63204 7.23455 6.858 5.30273 10.5947L9.35994 13.6357C10.28 11.2188 12.5341 9.05488 15.6314 8.79226C19.0569 8.50154 21.0197 10.5366 21.0197 10.5366L24.4453 7.11286C23.2479 6.07886 19.6886 3.43136 14.7992 4.10971Z" fill="#E74A37"/>
<path id="Vector_2" d="M9.43547 18.4403C8.90861 17.0584 8.80483 15.6048 9.11117 14.4119C9.17802 14.1512 9.26084 13.8915 9.35963 13.6347L5.30242 10.5938C4.72467 11.7121 4.31356 12.966 4.12198 14.3499C3.71885 17.2648 4.36346 19.6284 5.34333 21.4473L9.43547 18.4393V18.4403Z" fill="#FFD109"/>
<path id="Vector_3" d="M20.3472 22.1074C18.8565 23.0445 16.4696 23.8624 13.536 22.6821C11.4665 21.8487 10.1074 20.2041 9.43588 18.4414L5.34375 21.4494C6.3835 23.3798 7.80242 24.6958 8.74638 25.4022C11.0005 27.0894 16.5295 30.048 23.4815 25.8606C24.0392 25.473 24.1779 25.3363 24.4853 25.0563L20.3472 22.1084V22.1074Z" fill="#6EBE53"/>
<path id="Vector_4" d="M27.8035 13.793L16.3164 13.8249L16.3284 18.4164H22.9141C22.9141 18.7071 22.5818 20.2896 21.3176 21.3885C21.0581 21.6143 20.7308 21.8644 20.3447 22.1076L24.4618 25.0739C29.2145 20.7761 27.8035 13.7939 27.8035 13.7939V13.793Z" fill="#6B8CFF"/>
</g>
</g>
</svg>
